<svg viewBox="0 0 320 320" xmlns="http://www.w3.org/2000/svg" role="img" aria-label="Homogeneous workplace clusters forming a gender-balanced occupation">
  <rect x="0.75" y="0.75" width="318.5" height="318.5" rx="5" fill="#fafaf7" stroke="#e6e4dd" stroke-width="1.5"/>
  <g>
    <circle cx="99.9" cy="119.7" r="5.60" fill="#ff7a59"/>
    <circle cx="106.4" cy="136.8" r="6.82" fill="#ff7a59"/>
    <circle cx="84.0" cy="120.1" r="5.89" fill="#ff7a59"/>
    <circle cx="99.9" cy="103.8" r="5.90" fill="#ff7a59"/>
    <circle cx="115.7" cy="117.7" r="6.98" fill="#5ec8e8"/>
    <circle cx="169.4" cy="126.2" r="6.11" fill="#ff7a59"/>
    <circle cx="186.6" cy="122.4" r="5.83" fill="#ff7a59"/>
    <circle cx="177.4" cy="142.7" r="5.80" fill="#ff7a59"/>
    <circle cx="151.2" cy="128.2" r="5.69" fill="#ff7a59"/>
    <circle cx="170.0" cy="109.8" r="6.02" fill="#5ec8e8"/>
    <circle cx="231.7" cy="125.5" r="6.91" fill="#ff7a59"/>
    <circle cx="222.7" cy="111.6" r="6.93" fill="#ff7a59"/>
    <circle cx="247.9" cy="118.6" r="6.10" fill="#ff7a59"/>
    <circle cx="239.6" cy="140.5" r="6.17" fill="#ff7a59"/>
    <circle cx="217.3" cy="133.2" r="6.37" fill="#ff7a59"/>
    <circle cx="80.9" cy="208.9" r="6.33" fill="#5ec8e8"/>
    <circle cx="65.5" cy="206.6" r="6.69" fill="#5ec8e8"/>
    <circle cx="80.1" cy="190.6" r="5.75" fill="#5ec8e8"/>
    <circle cx="97.6" cy="202.9" r="6.65" fill="#5ec8e8"/>
    <circle cx="83.6" cy="227.0" r="6.72" fill="#5ec8e8"/>
    <circle cx="70.3" cy="221.6" r="6.80" fill="#5ec8e8"/>
    <circle cx="174.2" cy="214.8" r="6.03" fill="#5ec8e8"/>
    <circle cx="190.2" cy="209.1" r="6.72" fill="#5ec8e8"/>
    <circle cx="177.9" cy="230.3" r="6.48" fill="#5ec8e8"/>
    <circle cx="157.3" cy="219.9" r="6.61" fill="#5ec8e8"/>
    <circle cx="167.0" cy="198.7" r="6.03" fill="#5ec8e8"/>
    <circle cx="236.8" cy="197.6" r="5.65" fill="#5ec8e8"/>
    <circle cx="250.5" cy="207.9" r="6.29" fill="#5ec8e8"/>
    <circle cx="238.0" cy="213.8" r="6.77" fill="#5ec8e8"/>
    <circle cx="219.4" cy="202.2" r="5.78" fill="#5ec8e8"/>
    <circle cx="226.4" cy="184.5" r="6.62" fill="#5ec8e8"/>
    <circle cx="242.4" cy="180.2" r="6.93" fill="#ff7a59"/>
  </g>
</svg>
