<?xml version="1.0" encoding="UTF-8"?>
<svg xmlns="http://www.w3.org/2000/svg" viewBox="0 0 400 400" role="img" aria-label="Two grids of dots: gender-mixed workplaces on the left, gender-sorted workplaces on the right">
  <rect width="400" height="400" fill="#fafaf7"/>

  <!-- Header labels -->
  <text x="100" y="40" text-anchor="middle" font-family="Inter, sans-serif" font-size="12" fill="#6b6b6b" letter-spacing="1.5">INTEGRATED</text>
  <text x="300" y="40" text-anchor="middle" font-family="Inter, sans-serif" font-size="12" fill="#6b6b6b" letter-spacing="1.5">SORTED</text>

  <!-- Vertical divider -->
  <line x1="200" y1="50" x2="200" y2="370" stroke="#e0e0d8" stroke-width="1"/>

  <!-- LEFT panel: integrated/mixed workplaces -->
  <!-- 4x4 grid of dots, alternating colors (random-looking mix) -->
  <g>
    <!-- row 1 -->
    <circle cx="55" cy="80" r="6" fill="#1f3a5f"/>
    <circle cx="85" cy="80" r="6" fill="#c89070"/>
    <circle cx="115" cy="80" r="6" fill="#1f3a5f"/>
    <circle cx="145" cy="80" r="6" fill="#c89070"/>
    <!-- row 2 -->
    <circle cx="55" cy="130" r="6" fill="#c89070"/>
    <circle cx="85" cy="130" r="6" fill="#1f3a5f"/>
    <circle cx="115" cy="130" r="6" fill="#c89070"/>
    <circle cx="145" cy="130" r="6" fill="#1f3a5f"/>
    <!-- row 3 -->
    <circle cx="55" cy="180" r="6" fill="#1f3a5f"/>
    <circle cx="85" cy="180" r="6" fill="#c89070"/>
    <circle cx="115" cy="180" r="6" fill="#1f3a5f"/>
    <circle cx="145" cy="180" r="6" fill="#c89070"/>
    <!-- row 4 -->
    <circle cx="55" cy="230" r="6" fill="#c89070"/>
    <circle cx="85" cy="230" r="6" fill="#1f3a5f"/>
    <circle cx="115" cy="230" r="6" fill="#c89070"/>
    <circle cx="145" cy="230" r="6" fill="#1f3a5f"/>
  </g>

  <!-- RIGHT panel: sorted workplaces (clear vertical color blocks) -->
  <g>
    <!-- row 1 -->
    <circle cx="255" cy="80" r="6" fill="#1f3a5f"/>
    <circle cx="285" cy="80" r="6" fill="#1f3a5f"/>
    <circle cx="315" cy="80" r="6" fill="#c89070"/>
    <circle cx="345" cy="80" r="6" fill="#c89070"/>
    <!-- row 2 -->
    <circle cx="255" cy="130" r="6" fill="#1f3a5f"/>
    <circle cx="285" cy="130" r="6" fill="#1f3a5f"/>
    <circle cx="315" cy="130" r="6" fill="#c89070"/>
    <circle cx="345" cy="130" r="6" fill="#c89070"/>
    <!-- row 3 -->
    <circle cx="255" cy="180" r="6" fill="#1f3a5f"/>
    <circle cx="285" cy="180" r="6" fill="#1f3a5f"/>
    <circle cx="315" cy="180" r="6" fill="#c89070"/>
    <circle cx="345" cy="180" r="6" fill="#c89070"/>
    <!-- row 4 -->
    <circle cx="255" cy="230" r="6" fill="#1f3a5f"/>
    <circle cx="285" cy="230" r="6" fill="#1f3a5f"/>
    <circle cx="315" cy="230" r="6" fill="#c89070"/>
    <circle cx="345" cy="230" r="6" fill="#c89070"/>
  </g>

  <!-- Bottom segregation curves illustrative -->
  <g stroke-linecap="round" fill="none">
    <!-- integrated: rises steep -->
    <path d="M 30 360 Q 90 320 170 280" stroke="#9c9c95" stroke-width="2"/>
    <!-- sorted: rises less -->
    <path d="M 230 360 Q 290 340 370 320" stroke="#1f3a5f" stroke-width="2"/>
  </g>

  <text x="100" y="385" text-anchor="middle" font-family="Inter, sans-serif" font-size="9" fill="#9c9c95" letter-spacing="0.8">higher Dᵒ</text>
  <text x="300" y="385" text-anchor="middle" font-family="Inter, sans-serif" font-size="9" fill="#1f3a5f" letter-spacing="0.8">lower Dᵒ</text>
</svg>
